<svg xmlns="http://www.w3.org/2000/svg" width="43.263" height="39.802" viewBox="0 0 43.263 39.802">
  <g id="comment" transform="translate(0 0)">
    <path id="Path_3" data-name="Path 3" d="M37.315-1.332H5.949A5.954,5.954,0,0,0,0,4.616v19.2A5.955,5.955,0,0,0,5.927,29.76V38.47L18.446,29.76h18.87a5.955,5.955,0,0,0,5.948-5.948V4.616a5.954,5.954,0,0,0-5.948-5.948Zm3.413,25.144a3.417,3.417,0,0,1-3.413,3.413H17.651L8.462,33.618V27.225H5.948a3.417,3.417,0,0,1-3.413-3.413V4.616A3.417,3.417,0,0,1,5.948,1.2H37.315a3.417,3.417,0,0,1,3.413,3.413Zm0,0" transform="translate(-0.001 1.332)" fill="#fff"/>
    <path id="Path_4" data-name="Path 4" d="M171.293,131.172h20.1v2.535h-20.1Zm0,0" transform="translate(-159.714 -122.215)" fill="#fff"/>
    <path id="Path_5" data-name="Path 5" d="M171.293,211.172h20.1v2.535h-20.1Zm0,0" transform="translate(-159.714 -196.807)" fill="#fff"/>
    <path id="Path_6" data-name="Path 6" d="M171.293,291.172h20.1v2.535h-20.1Zm0,0" transform="translate(-159.714 -271.399)" fill="#fff"/>
  </g>
</svg>
