<svg id="facebook_1_" data-name="facebook (1)" xmlns="http://www.w3.org/2000/svg" width="28.213" height="28.213" viewBox="0 0 28.213 28.213">
  <g id="Group_666" data-name="Group 666">
    <path id="Path_2002" data-name="Path 2002" d="M24.906,0H3.306A3.31,3.31,0,0,0,0,3.306v21.6a3.31,3.31,0,0,0,3.306,3.306h21.6a3.31,3.31,0,0,0,3.306-3.306V3.306A3.31,3.31,0,0,0,24.906,0Zm1.1,24.906a1.1,1.1,0,0,1-1.1,1.1H18.625V17.027h3.4l.563-3.416H18.625V11.241a1.625,1.625,0,0,1,1.653-1.653h2.259V6.172H20.278a5.069,5.069,0,0,0-5.068,5.079v2.36H11.9v3.416H15.21v8.982H3.306a1.1,1.1,0,0,1-1.1-1.1V3.306a1.1,1.1,0,0,1,1.1-1.1h21.6a1.1,1.1,0,0,1,1.1,1.1Z" fill="#44b45c"/>
  </g>
</svg>
