<svg xmlns="http://www.w3.org/2000/svg" width="56.202" height="56.325" viewBox="0 0 56.202 56.325">
  <g id="flower-smallBox" transform="translate(-0.549 0)">
    <path id="Path_1" data-name="Path 1" d="M261.43,1.371a3.189,3.189,0,0,0-5.131-.148c-5.808,7.4-3.818,5.119-6.5,7.419l1.608-4.108a3.191,3.191,0,1,0-6.084-.457l1.637,7.215q-1.562,1.585-2.984,3.328l.934-3.527a3.191,3.191,0,1,0-6.1.24l2.441,6.959c-.946,1.407-1.726,2.7-2.538,4.19.419-3.634.4-3.428.4-3.68a3.188,3.188,0,0,0-3.774-3.131c-2.924.542-3.309,4.531-1.632,4.294a.838.838,0,0,0,.713-.948,1.515,1.515,0,1,1,3.006-.036l-.564,4.9-1.1-2.11a.838.838,0,0,0-1.486.777L236.56,26.9a57.521,57.521,0,0,0-4.673,28.661.838.838,0,1,0,1.67-.155,55.7,55.7,0,0,1,4.475-27.665c7.692.52,7.174.489,7.335.489a3.191,3.191,0,1,0-1.617-5.947L239.4,24.829a52.123,52.123,0,0,1,3.149-5.424c7.639,1.641,7.256,1.587,7.731,1.587a3.192,3.192,0,1,0-1.209-6.151L244.483,16.7a46.162,46.162,0,0,1,3.624-4.175C255.56,15.041,255.258,15,255.964,15a3.2,3.2,0,0,0,1.658-5.918.838.838,0,1,0-.875,1.431,1.514,1.514,0,0,1-1.272,2.729l-4.669-1.578,3.372-.934a.838.838,0,0,0-.448-1.616l-2.82.781q.81-.695,1.671-1.362l7.2-2.3a3.19,3.19,0,0,0,1.649-4.861ZM244.6,23.734a1.516,1.516,0,0,1,1.918,2.288,1.5,1.5,0,0,1-1.257.531l-4.918-.333Zm-1.305-13.071-1.261,4.765L240.4,10.776a1.516,1.516,0,0,1,2.611-1.448,1.5,1.5,0,0,1,.282,1.335Zm6.4,5.734a1.514,1.514,0,1,1,.25,2.884l-4.819-1.035Zm-1.644-7.885L246.961,3.7a1.5,1.5,0,0,1,.33-1.324,1.516,1.516,0,0,1,2.557,1.541Zm12.193-4.833a1.5,1.5,0,0,1-.973.956l-4.695,1.5,3.042-3.878A1.516,1.516,0,0,1,260.244,3.679Z" transform="translate(-205.253)" fill="#fff"/>
    <path id="Path_2" data-name="Path 2" d="M21.362,67.11a3.161,3.161,0,0,0-2.221,1.825c-3.8,8.593-2.432,5.894-4.466,8.788l.544-4.372a3.191,3.191,0,1,0-6.008,1.059l3.365,6.584q-1.122,1.92-2.068,3.958l.034-3.64a3.191,3.191,0,1,0-5.848,1.737l4.082,6.139q-.813,2.282-1.424,4.686l-.447-3.3a3.191,3.191,0,1,0-5.538,2.559l4.985,5.56a64.925,64.925,0,0,0-.561,15.656.838.838,0,1,0,1.671-.141A62.964,62.964,0,0,1,8,99.143l7-1.287a3.191,3.191,0,1,0-2.817-5.412L8.6,95.972a52.038,52.038,0,0,1,1.7-6.022l7.2-.272A3.187,3.187,0,0,0,20.4,85.438c-1.009-2.892-5.169-2.532-4.586-.888a.839.839,0,0,0,1.07.51A1.515,1.515,0,1,1,17.441,88l-4.925.186,1.828-1.344a.838.838,0,1,0-.993-1.351l-1.84,1.353a46.023,46.023,0,0,1,2.479-4.939c7.778.6,7.264.561,7.444.561a3.191,3.191,0,1,0-1.592-5.961L16.059,78.67q.613-.873,1.282-1.732l6.411-4.008a3.191,3.191,0,0,0-2.39-5.819ZM2.614,92.013A1.514,1.514,0,1,1,5.242,90.8L5.9,95.683Zm10.742,1.626a1.5,1.5,0,0,1,1.057-.436,1.515,1.515,0,0,1,.279,3L9.846,97.1ZM8.819,86.222l-2.729-4.1A1.516,1.516,0,0,1,8.262,80.07a1.5,1.5,0,0,1,.6,1.224Zm4.736-13.079-.608,4.891L10.7,73.645a1.514,1.514,0,1,1,2.851-.5Zm7.119,4.819a1.516,1.516,0,0,1,1.9,2.3,1.5,1.5,0,0,1-1.261.519L16.4,80.41Zm2.189-6.454-4.179,2.613,1.991-4.509a1.514,1.514,0,1,1,2.188,1.9Z" transform="translate(0 -59.538)" fill="#fff"/>
  </g>
</svg>
