<svg id="goal" xmlns="http://www.w3.org/2000/svg" width="44.604" height="46.142" viewBox="0 0 44.604 46.142">
  <path id="Path_14" data-name="Path 14" d="M32,432h1.538v1.538H32Zm0,0" transform="translate(-28.924 -390.472)" fill="#44b45c"/>
  <path id="Path_15" data-name="Path 15" d="M26.916,37.682a2.307,2.307,0,0,0-1.707-2.218A2.3,2.3,0,0,0,23.071,32.3H21.533V20.764h6.152v6.152a3.076,3.076,0,0,0,3.076,3.076H43.835a.769.769,0,0,0,.769-.769V10.766A.769.769,0,0,0,43.835,10H38.452V6.152a3.076,3.076,0,0,0-3.076-3.076H21.533V2.307a2.307,2.307,0,1,0-4.614,0V29.781a4.1,4.1,0,0,0-5.475,1.27l-1.4,2.1a1.539,1.539,0,0,1-1.276.685H7.69v-.769a.769.769,0,0,0-.769-.769H.769A.769.769,0,0,0,0,33.068v12.3a.769.769,0,0,0,.769.769H6.921a.769.769,0,0,0,.769-.769V44.6H9.819a15.418,15.418,0,0,0,6.69,1.538H22.3a2.307,2.307,0,0,0,2.307-2.307A2.282,2.282,0,0,0,24.3,42.7a2.285,2.285,0,0,0,.908-2.8,2.307,2.307,0,0,0,1.707-2.218ZM6.152,44.6H1.538V33.837H6.152Zm29.223-23.84a1.538,1.538,0,0,1,0,3.076H30.761a3.044,3.044,0,0,0-1.538.428v-3.5Zm7.69-9.228V28.454h-12.3a1.538,1.538,0,1,1,0-3.076h4.614A3.076,3.076,0,0,0,38.452,22.3V11.535ZM36.914,6.152v13.5a3.044,3.044,0,0,0-1.538-.428H21.533V4.614H35.375a1.538,1.538,0,0,1,1.538,1.538ZM19.226,1.538a.751.751,0,0,1,.548.235.742.742,0,0,1,.221.534V32.3H18.932l-.4-.808c-.021-.042-.049-.077-.071-.121V2.307a.769.769,0,0,1,.769-.769Zm5.383,36.913H19.995v1.538h3.076a.769.769,0,1,1,0,1.538H18.457v1.538H22.3a.769.769,0,1,1,0,1.538H16.513a13.869,13.869,0,0,1-6.172-1.461A.771.771,0,0,0,10,43.066H7.69v-7.69H8.767a3.076,3.076,0,0,0,2.559-1.369l1.4-2.1a2.565,2.565,0,0,1,4.429.276l.06.12H15.381v1.538h7.69a.769.769,0,1,1,0,1.538H18.457v1.538h6.152a.769.769,0,0,1,0,1.538Zm0,0" transform="translate(0 0)" fill="#44b45c"/>
  <path id="Path_16" data-name="Path 16" d="M360,328h8.459v1.538H360Zm0,0" transform="translate(-325.394 -296.47)" fill="#44b45c"/>
  <path id="Path_17" data-name="Path 17" d="M144,96h1.538v13.074H144Zm0,0" transform="translate(-130.157 -86.772)" fill="#44b45c"/>
  <path id="Path_18" data-name="Path 18" d="M144,248h1.538v1.538H144Zm0,0" transform="translate(-130.157 -224.16)" fill="#44b45c"/>
</svg>
