<svg xmlns="http://www.w3.org/2000/svg" width="51.154" height="48.483" viewBox="0 0 51.154 48.483">
  <g id="human" transform="translate(0 -0.152)">
    <path id="Path_2005" data-name="Path 2005" d="M281.374,216.567a.841.841,0,0,1-.841-.841v-.32c0-.983-1.4-1.947-2.832-1.947h-3.438a.841.841,0,0,1,0-1.682H277.7c2.135,0,4.513,1.491,4.513,3.629v.32A.841.841,0,0,1,281.374,216.567Zm0,0" transform="translate(-239.744 -185.558)" fill="#fff"/>
    <path id="Path_2006" data-name="Path 2006" d="M193.969,74.623c-.023,0-.046,0-.069,0a.841.841,0,0,1-.769-.907l.421-5.132a5.19,5.19,0,0,0-5-5.31h-4.306a5.2,5.2,0,0,0-4.994,5.379l.417,5.064a.841.841,0,1,1-1.676.138l-.42-5.132a6.9,6.9,0,0,1,6.673-7.129h4.306a6.884,6.884,0,0,1,6.676,7.06l-.423,5.2a.841.841,0,0,1-.837.772Zm0,0" transform="translate(-155.702 -53.87)" fill="#fff"/>
    <path id="Path_2007" data-name="Path 2007" d="M189.369,125.4a9.235,9.235,0,0,1-2.906-.464.841.841,0,0,1,.535-1.6,7.535,7.535,0,0,0,2.37.377,6.088,6.088,0,0,0,4.6-1.8,9.142,9.142,0,0,0,2.125-5.382v-3.389a1.086,1.086,0,0,0-.268-.874c-.634-.494-2.647.018-4.424.469a20.617,20.617,0,0,1-4.823.839,7.218,7.218,0,0,1-3.929-1.149c-.006.188-.009.422-.009.715v3.389a8.706,8.706,0,0,0,1.223,4.083.841.841,0,0,1-1.457.839,10.3,10.3,0,0,1-1.448-4.923v-3.389c0-1.43.032-2.257.7-2.624.593-.332,1.155.025,1.649.335a5.683,5.683,0,0,0,3.273,1.041,19.5,19.5,0,0,0,4.409-.788c2.462-.625,4.586-1.166,5.87-.166a2.626,2.626,0,0,1,.918,2.2v3.389A10.782,10.782,0,0,1,195.259,123,7.679,7.679,0,0,1,189.369,125.4Zm0,0" transform="translate(-158.671 -96.663)" fill="#fff"/>
    <path id="Path_2008" data-name="Path 2008" d="M305.548,260.15a.841.841,0,0,1-.182-1.661l9.979-2.234a1.282,1.282,0,0,0,.854-.525,1.253,1.253,0,0,0,.21-.942,1.269,1.269,0,0,0-.806-.967.841.841,0,1,1,.584-1.577,2.955,2.955,0,0,1,1.879,2.253,2.943,2.943,0,0,1-2.391,3.407l-9.94,2.226A.865.865,0,0,1,305.548,260.15Zm0,0" transform="translate(-267.176 -220.993)" fill="#fff"/>
    <path id="Path_2009" data-name="Path 2009" d="M72.5,211.481H66.117a.833.833,0,0,1-.182-.02l-7.567-1.682a.841.841,0,0,1,.364-1.642L66.21,209.8h6.3a14.563,14.563,0,0,0,9.063-3.179.778.778,0,0,1,.07-.05l12.446-8a.821.821,0,0,1,.127-.067,1.261,1.261,0,1,0-.985-2.322l-12.493,5.151a.842.842,0,0,1-.32.063H64.436a.84.84,0,0,1-.721-1.274l2.523-4.2a.841.841,0,0,1,.721-.408h3.364a3.369,3.369,0,0,0,3.257-2.523H64.711l-11.47,8.412a.841.841,0,0,1-.995-1.357l11.693-8.574a.838.838,0,0,1,.5-.163h10.09a.841.841,0,0,1,.841.841,5.051,5.051,0,0,1-5.045,5.045H67.435l-1.514,2.523H80.246l12.332-5.084a2.944,2.944,0,0,1,2.362,5.392l-12.354,7.944a16.257,16.257,0,0,1-10.08,3.52Zm0,0" transform="translate(-45.509 -167.604)" fill="#fff"/>
    <path id="Path_2010" data-name="Path 2010" d="M9.1,272.275a.838.838,0,0,1-.682-.349L.16,260.472A.841.841,0,0,1,.35,259.3l5.456-3.933a.844.844,0,0,1,1.174.191l8.256,11.453a.841.841,0,0,1-.19,1.174L9.59,272.117a.843.843,0,0,1-.492.158Zm-7.083-12.1L9.289,270.26l4.092-2.95L6.108,257.221Zm0,0" transform="translate(0 -223.639)" fill="#fff"/>
    <path id="Path_2011" data-name="Path 2011" d="M68.273,336.339a1.682,1.682,0,1,1-1.682-1.682A1.682,1.682,0,0,1,68.273,336.339Zm0,0" transform="translate(-56.915 -293.302)" fill="#fff"/>
    <path id="Path_2012" data-name="Path 2012" d="M243.243,5.2a.84.84,0,0,1-.841-.841V.993a.841.841,0,0,1,1.682,0V4.357A.84.84,0,0,1,243.243,5.2Zm0,0" transform="translate(-212.544)" fill="#fff"/>
    <path id="Path_2013" data-name="Path 2013" d="M270.55,8.189a.841.841,0,0,1-.594-1.435L272.9,3.811A.841.841,0,1,1,274.088,5l-2.943,2.943a.837.837,0,0,1-.595.246Zm0,0" transform="translate(-236.489 -2.992)" fill="#fff"/>
    <path id="Path_2014" data-name="Path 2014" d="M197.98,11.183a.836.836,0,0,1-.594-.246l-2.523-2.523a.841.841,0,0,1,1.189-1.189l2.523,2.523a.841.841,0,0,1-.595,1.435Zm0,0" transform="translate(-170.645 -5.985)" fill="#fff"/>
  </g>
</svg>
