<svg id="twitter_1_" data-name="twitter (1)" xmlns="http://www.w3.org/2000/svg" width="28.213" height="28.213" viewBox="0 0 28.213 28.213">
  <g id="Group_669" data-name="Group 669">
    <g id="Group_668" data-name="Group 668">
      <path id="Path_2003" data-name="Path 2003" d="M20.762,0H7.451A7.371,7.371,0,0,0,0,7.451V20.762a7.371,7.371,0,0,0,7.451,7.451H20.762a7.371,7.371,0,0,0,7.451-7.451V7.451A7.372,7.372,0,0,0,20.762,0Zm5.631,20.762a5.571,5.571,0,0,1-5.631,5.631H7.451A5.571,5.571,0,0,1,1.82,20.762V7.451A5.571,5.571,0,0,1,7.451,1.82H20.762a5.571,5.571,0,0,1,5.631,5.631Z" fill="#44b45c"/>
      <path id="Path_2004" data-name="Path 2004" d="M103.811,115.67a.91.91,0,0,0-1-.05,5.259,5.259,0,0,1-1.554.346l-.337.046a4.373,4.373,0,0,0-2.784-1,4.307,4.307,0,0,0-4.317,4.015,8.86,8.86,0,0,1-5.345-3.071.91.91,0,0,0-1.535.214,12.177,12.177,0,0,0-.566,4.473c0,2.677,2.112,4.643,3.561,5.678a6.22,6.22,0,0,1-3.218.5.91.91,0,0,0-.588,1.675,10.7,10.7,0,0,0,5.72,1.65,10.437,10.437,0,0,0,10.618-10.177c.187-.272.545-.8,1.149-1.731a6.216,6.216,0,0,0,.544-1.627A.909.909,0,0,0,103.811,115.67Zm-2.983,3.464a.912.912,0,0,0-.173.533,8.662,8.662,0,0,1-8.8,8.651,8.973,8.973,0,0,1-1.626-.148,7.807,7.807,0,0,0,2-1.121.91.91,0,0,0-.145-1.533c-.039-.02-3.886-2.043-3.886-4.875a19.357,19.357,0,0,1,.118-2.263,10.716,10.716,0,0,0,6.453,2.576c.018,0,.037,0,.055,0a.91.91,0,0,0,.847-1.264,2.452,2.452,0,0,1,2.47-2.862,2.536,2.536,0,0,1,1.831.778.913.913,0,0,0,.832.266c.207-.039.445-.07.7-.1l.271-.036C101.086,118.774,100.839,119.117,100.827,119.133Z" transform="translate(-80.832 -108.466)" fill="#44b45c"/>
    </g>
  </g>
</svg>
