<svg xmlns="http://www.w3.org/2000/svg" width="44.092" height="28.409" viewBox="0 0 44.092 28.409">
  <g id="view" transform="translate(0.544 -92.335)">
    <g id="Group_3" data-name="Group 3" transform="translate(0 92.835)">
      <g id="Group_2" data-name="Group 2" transform="translate(0)">
        <path id="Path_7" data-name="Path 7" d="M42.73,105.7c-.384-.526-9.538-12.868-21.229-12.868S.657,105.178.273,105.7a1.419,1.419,0,0,0,0,1.673c.384.526,9.538,12.868,21.229,12.868S42.346,107.9,42.73,107.376A1.417,1.417,0,0,0,42.73,105.7ZM21.5,117.409c-8.612,0-16.07-8.192-18.278-10.87C5.429,103.858,12.872,95.67,21.5,95.67c8.611,0,16.069,8.191,18.278,10.87C37.575,109.221,30.132,117.409,21.5,117.409Z" transform="translate(0 -92.835)" fill="#fff" stroke="#fff" stroke-width="1"/>
      </g>
    </g>
    <g id="Group_5" data-name="Group 5" transform="translate(12.995 98.033)">
      <g id="Group_4" data-name="Group 4" transform="translate(0 0)">
        <path id="Path_8" data-name="Path 8" d="M163.228,154.725a8.506,8.506,0,1,0,8.506,8.506A8.516,8.516,0,0,0,163.228,154.725Zm0,14.177a5.671,5.671,0,1,1,5.671-5.671A5.677,5.677,0,0,1,163.228,168.9Z" transform="translate(-154.722 -154.725)" fill="#fff" stroke="#fff" stroke-width="1"/>
      </g>
    </g>
  </g>
</svg>
